# Rhino

mtllib 1-1.mtl
v -0.70710676908493 -1 0
v -1.41421353816986 0 0
v 0 -1 -1
v -0.70710676908493 0 -1
v -1.06066012382507 0 -0.5
v -0.353553384542465 -1 -0.5
v -0.353553384542465 -0.5 -1
v -1.06066012382507 -0.5 0
v -0.70710676908493 -1 0
v 0 -1 1
v -1.41421353816986 0 0
v -0.70710676908493 0 1
v -1.06066012382507 -0.5 0
v -1.06066012382507 0 0.5
v -0.353553384542465 -0.5 1
v -0.353553384542465 -1 0.5
v 0 -1 1
v 0.70710676908493 -1 0
v -0.70710676908493 -1 0
v 0 -1 -1
v -0.353553384542465 -1 -0.5
v -0.353553384542465 -1 0.5
v 0.353553384542465 -1 0.5
v 0.353553384542465 -1 -0.5
v 0 0 0
v -0.70710676908493 0 1
v -0.388340622186661 -0.153273686766624 0.592324614524841
v -0.70710676908493 0 1
v -0.400169640779495 -0.288479924201965 0.706805825233459
v -0.388577491044998 -0.404077500104904 0.842713415622711
v -0.70710676908493 0 1
v -0.353553384542465 -0.5 1
v 0 -1 1
v -0.235702261328697 0 0.333333343267441
v -0.471404522657394 0 0.666666686534882
v -0.0755636915564537 -0.806700766086578 0.699837565422058
v -0.102751091122627 -0.569318771362305 0.424006760120392
v -0.0758701711893082 -0.296912163496017 0.189615547657013
v 0 0 0
v 0.70710676908493 -1 0
v 0.31045588850975 -0.647397458553314 0.0982008576393127
v 0.70710676908493 -1 0
v 0.295801073312759 -0.780605494976044 0.214680194854736
v 0.310162454843521 -0.898161232471466 0.348629683256149
v 0.70710676908493 -1 0
v 0.353553384542465 -1 0.5
v 0 -1 1
v 0.235702261328697 -0.333333343267441 0
v 0.471404522657394 -0.666666686534882 0
v -0.0755636915564537 -0.806700766086578 0.699837565422058
v -0.102751091122627 -0.569318771362305 0.424006760120392
v -0.0758701711893082 -0.296912163496017 0.189615547657013
v 0 0 0
v -0.70710676908493 0 1
v -0.527217626571655 -0.0550728254020214 0.494123756885529
v -0.70710676908493 0 1
v -0.703773260116577 -0.073799729347229 0.492125600576401
v -0.881614327430725 -0.0554478019475937 0.494083732366562
v -0.70710676908493 0 1
v -1.06066012382507 0 0.5
v -1.41421353816986 0 0
v -0.235702261328697 0 0.333333343267441
v -0.471404522657394 0 0.666666686534882
v -1.06528341770172 -0.10686320066452 0
v -0.70238721370697 -0.14531198143959 0
v -0.344027042388916 -0.107296630740166 0
v 0 0 0
v -0.70710676908493 0 -1
v -0.527217626571655 -0.0550728254020214 -0.494123756885529
v -0.70710676908493 0 -1
v -0.703773260116577 -0.073799729347229 -0.492125600576401
v -0.881614327430725 -0.0554478019475937 -0.494083732366562
v -0.70710676908493 0 -1
v -1.06066012382507 0 -0.5
v -1.41421353816986 0 0
v -1.06528341770172 -0.10686320066452 0
v -0.70238721370697 -0.14531198143959 0
v -0.344027042388916 -0.107296630740166 0
v -0.235702261328697 0 -0.333333343267441
v -0.471404522657394 0 -0.666666686534882
v 0 0 0
v -0.70710676908493 0 -1
v -0.388340622186661 -0.153273686766624 -0.592324614524841
v -0.70710676908493 0 -1
v -0.400169640779495 -0.288479924201965 -0.706805825233459
v -0.388577491044998 -0.404077500104904 -0.842713415622711
v -0.70710676908493 0 -1
v -0.353553384542465 -0.5 -1
v 0 -1 -1
v -0.235702261328697 0 -0.333333343267441
v -0.471404522657394 0 -0.666666686534882
v -0.0755636915564537 -0.806700766086578 -0.699837565422058
v -0.102751091122627 -0.569318771362305 -0.424006760120392
v -0.0758701711893082 -0.296912163496017 -0.189615547657013
v 0 0 0
v 0.70710676908493 -1 0
v 0.31045588850975 -0.647397458553314 -0.0982008576393127
v 0.70710676908493 -1 0
v 0.295801073312759 -0.780605494976044 -0.214680194854736
v 0.310162454843521 -0.898161232471466 -0.348629683256149
v 0.70710676908493 -1 0
v 0.353553384542465 -1 -0.5
v 0 -1 -1
v 0.235702261328697 -0.333333343267441 0
v 0.471404522657394 -0.666666686534882 0
v -0.0755636915564537 -0.806700766086578 -0.699837565422058
v -0.102751091122627 -0.569318771362305 -0.424006760120392
v -0.0758701711893082 -0.296912163496017 -0.189615547657013
vt 0.296944946050644 0.5
vt 0.296944946050644 0.74853515625
vt 0.546944975852966 0.5
vt 0.546944975852966 0.74853515625
vt 0.421944946050644 0.74853515625
vt 0.421944946050644 0.5
vt 0.546944975852966 0.624267578125
vt 0.296944946050644 0.624267578125
vt 0.546944975852966 0
vt 0.296944946050644 0
vt 0.546944975852966 0.24853515625
vt 0.296944946050644 0.24853515625
vt 0.546944975852966 0.124267578125
vt 0.421944946050644 0.24853515625
vt 0.296944946050644 0.124267578125
vt 0.421944946050644 0
vt 0.546944975852966 0.25
vt 0.296944946050644 0.25
vt 0.546944975852966 0.49853515625
vt 0.296944946050644 0.49853515625
vt 0.421944946050644 0.49853515625
vt 0.546944975852966 0.374267578125
vt 0.421944946050644 0.25
vt 0.296944946050644 0.374267578125
vt 0.593889892101288 0.25
vt 0.667206764221191 0
vt 0.667206764221191 0.125
vt 0.741238594055176 0
vt 0.741238594055176 0.125
vt 0.815304338932037 0.125
vt 0.889370024204254 0
vt 0.889370024204254 0.125
vt 0.889370024204254 0.25
vt 0.593889892101288 0.16666667163372
vt 0.593889892101288 0.0833333358168602
vt 0.818062663078308 0.247149437665939
vt 0.741629958152771 0.246123820543289
vt 0.665627539157867 0.247137874364853
vt 0 0.99853515625
vt 0.073316864669323 0.75
vt 0.073316864669323 0.874267578125
vt 0.147348687052727 0.75
vt 0.147348687052727 0.874267578125
vt 0.221414402127266 0.874267578125
vt 0.295480102300644 0.75
vt 0.295480102300644 0.874267578125
vt 0.295480102300644 0.99853515625
vt 0 0.915690124034882
vt 0 0.832845032215118
vt 0.224172741174698 0.995701313018799
vt 0.147740051150322 0.994681715965271
vt 0.0717376321554184 0.995689809322357
vt 0.593889892101288 0.75
vt 0.667206764221191 0.5
vt 0.667206764221191 0.625
vt 0.741238594055176 0.5
vt 0.741238594055176 0.625
vt 0.815304338932037 0.625
vt 0.889370024204254 0.5
vt 0.889370024204254 0.625
vt 0.889370024204254 0.75
vt 0.593889892101288 0.666666686534882
vt 0.593889892101288 0.583333313465118
vt 0.818062663078308 0.747149467468262
vt 0.741629958152771 0.746123850345612
vt 0.665627539157867 0.747137904167175
vt 0 0
vt 0.25 0.0736803337931633
vt 0.125 0.0736803337931633
vt 0.25 0.148079171776772
vt 0.125 0.148079171776772
vt 0.125 0.222512066364288
vt 0.25 0.296944946050644
vt 0.125 0.296944946050644
vt 0 0.296944946050644
vt 0.00285056233406067 0.225284069776535
vt 0.00387617945671082 0.148472473025322
vt 0.00286212563514709 0.072093278169632
vt 0.0833333283662796 0
vt 0.16666667163372 0
vt 0.296944946050644 0.99853515625
vt 0.370261818170547 0.75
vt 0.370261818170547 0.874267578125
vt 0.444293648004532 0.75
vt 0.444293648004532 0.874267578125
vt 0.518359363079071 0.874267578125
vt 0.592425048351288 0.75
vt 0.592425048351288 0.874267578125
vt 0.592425048351288 0.99853515625
vt 0.296944946050644 0.915690124034882
vt 0.296944946050644 0.832845032215118
vt 0.521117687225342 0.995701313018799
vt 0.444685012102127 0.994681715965271
vt 0.368682593107224 0.995689809322357
vt 0 0.74853515625
vt 0.073316864669323 0.5
vt 0.073316864669323 0.624267578125
vt 0.147348687052727 0.5
vt 0.147348687052727 0.624267578125
vt 0.221414402127266 0.624267578125
vt 0.295480102300644 0.5
vt 0.295480102300644 0.624267578125
vt 0.295480102300644 0.74853515625
vt 0 0.665690124034882
vt 0 0.582845032215118
vt 0.224172741174698 0.745701313018799
vt 0.147740051150322 0.744681715965271
vt 0.0717376321554184 0.745689809322357
vn -0.70710676908493 -0.5 -0.5
vn -0.70710676908493 -0.5 -0.5
vn -0.70710676908493 -0.5 -0.5
vn -0.70710676908493 -0.5 -0.5
vn -0.70710676908493 -0.5 -0.5
vn -0.70710676908493 -0.5 -0.5
vn -0.70710676908493 -0.5 -0.5
vn -0.70710676908493 -0.5 -0.5
vn -0.70710676908493 -0.5 0.5
vn -0.70710676908493 -0.5 0.5
vn -0.70710676908493 -0.5 0.5
vn -0.70710676908493 -0.5 0.5
vn -0.70710676908493 -0.5 0.5
vn -0.70710676908493 -0.5 0.5
vn -0.70710676908493 -0.5 0.5
vn -0.70710676908493 -0.5 0.5
vn 0 -1 0
vn 0 -1 0
vn 0 -1 0
vn 0 -1 0
vn 0 -1 0
vn 0 -1 0
vn 0 -1 0
vn 0 -1 0
vn 0.815118014812469 0.0580860190093517 0.576375484466553
vn 0.806035697460175 0.252369076013565 0.535365581512451
vn 0.806035697460175 0.252369076013565 0.535365581512451
vn 0.801443755626678 0.422136873006821 0.423660665750504
vn 0.801443755626678 0.422136873006821 0.423660665750504
vn 0.805060148239136 0.534379899501801 0.257519423961639
vn 0.814577162265778 0.575993061065674 0.068527415394783
vn 0.814577162265778 0.575993061065674 0.068527415394783
vn 0.814577162265778 0.575993061065674 0.068527415394783
vn 0.815118014812469 0.0580860190093517 0.576375484466553
vn 0.815118014812469 0.0580860190093517 0.576375484466553
vn 0.805340170860291 0.537205874919891 0.250673145055771
vn 0.80144065618515 0.422902405261993 0.422902405261993
vn 0.806205093860626 0.248328611254692 0.536997437477112
vn 0.448632001876831 0.317230731248856 0.835520207881927
vn 0.557012498378754 0.428455054759979 0.711451590061188
vn 0.557012498378754 0.428455054759979 0.711451590061188
vn 0.598069190979004 0.56594443321228 0.567468225955963
vn 0.598069190979004 0.56594443321228 0.567468225955963
vn 0.559957385063171 0.707693755626678 0.430833250284195
vn 0.455744802951813 0.829725861549377 0.322260230779648
vn 0.455744802951813 0.829725861549377 0.322260230779648
vn 0.455744802951813 0.829725861549377 0.322260230779648
vn 0.448632001876831 0.317230731248856 0.835520207881927
vn 0.448632001876831 0.317230731248856 0.835520207881927
vn 0.557114601135254 0.712727844715118 0.426195174455643
vn 0.598074316978455 0.566704094409943 0.566704094409943
vn 0.555309355258942 0.425738662481308 0.714407503604889
vn -0.366485983133316 0.893606185913086 -0.259144723415375
vn -0.200108751654625 0.96382063627243 -0.176085993647575
vn -0.200108751654625 0.96382063627243 -0.176085993647575
vn -0.0010774820111692 0.989605069160461 -0.14380756020546
vn -0.0010774820111692 0.989605069160461 -0.14380756020546
vn 0.195769935846329 0.965213179588318 -0.173313826322556
vn 0.358832389116287 0.898253262042999 -0.253732830286026
vn 0.358832389116287 0.898253262042999 -0.253732830286026
vn 0.358832389116287 0.898253262042999 -0.253732830286026
vn -0.366485983133316 0.893606185913086 -0.259144723415375
vn -0.366485983133316 0.893606185913086 -0.259144723415375
vn 0.202609211206436 0.963401019573212 -0.175522014498711
vn 0 0.989606499671936 -0.143801689147949
vn -0.204119682312012 0.962736129760742 -0.177410066127777
vn -0.366485983133316 0.893606185913086 0.259144723415375
vn -0.200108751654625 0.96382063627243 0.176085993647575
vn -0.200108751654625 0.96382063627243 0.176085993647575
vn -0.0010774820111692 0.989605069160461 0.14380756020546
vn -0.0010774820111692 0.989605069160461 0.14380756020546
vn 0.195769935846329 0.965213179588318 0.173313826322556
vn 0.358832389116287 0.898253262042999 0.253732830286026
vn 0.358832389116287 0.898253262042999 0.253732830286026
vn 0.358832389116287 0.898253262042999 0.253732830286026
vn 0.202609211206436 0.963401019573212 0.175522014498711
vn 0 0.989606499671936 0.143801689147949
vn -0.204119682312012 0.962736129760742 0.177410066127777
vn -0.366485983133316 0.893606185913086 0.259144723415375
vn -0.366485983133316 0.893606185913086 0.259144723415375
vn 0.815118014812469 0.0580860190093517 -0.576375484466553
vn 0.806035697460175 0.252369076013565 -0.535365581512451
vn 0.806035697460175 0.252369076013565 -0.535365581512451
vn 0.801443755626678 0.422136873006821 -0.423660665750504
vn 0.801443755626678 0.422136873006821 -0.423660665750504
vn 0.805060148239136 0.534379899501801 -0.257519423961639
vn 0.814577162265778 0.575993061065674 -0.068527415394783
vn 0.814577162265778 0.575993061065674 -0.068527415394783
vn 0.814577162265778 0.575993061065674 -0.068527415394783
vn 0.815118014812469 0.0580860190093517 -0.576375484466553
vn 0.815118014812469 0.0580860190093517 -0.576375484466553
vn 0.805340170860291 0.537205874919891 -0.250673145055771
vn 0.80144065618515 0.422902405261993 -0.422902405261993
vn 0.806205093860626 0.248328611254692 -0.536997437477112
vn 0.448632001876831 0.317230731248856 -0.835520207881927
vn 0.557012498378754 0.428455054759979 -0.711451590061188
vn 0.557012498378754 0.428455054759979 -0.711451590061188
vn 0.598069190979004 0.56594443321228 -0.567468225955963
vn 0.598069190979004 0.56594443321228 -0.567468225955963
vn 0.559957385063171 0.707693755626678 -0.430833250284195
vn 0.455744802951813 0.829725861549377 -0.322260230779648
vn 0.455744802951813 0.829725861549377 -0.322260230779648
vn 0.455744802951813 0.829725861549377 -0.322260230779648
vn 0.448632001876831 0.317230731248856 -0.835520207881927
vn 0.448632001876831 0.317230731248856 -0.835520207881927
vn 0.557114601135254 0.712727844715118 -0.426195174455643
vn 0.598074316978455 0.566704094409943 -0.566704094409943
vn 0.555309355258942 0.425738662481308 -0.714407503604889
f 6/6/6 1/1/1 8/8/8 2/2/2 5/5/5 4/4/4 7/7/7 3/3/3
f 16/16/16 10/10/10 15/15/15 12/12/12 14/14/14 11/11/11 13/13/13 \
9/9/9
f 23/23/23 17/17/17 22/22/22 19/19/19 21/21/21 20/20/20 24/24/24 \
18/18/18
f 27/27/27 26/26/26 29/29/29 37/37/37 38/38/38
f 29/29/29 28/28/28 30/30/30 37/37/37
f 35/35/35 26/26/26 27/27/27 38/38/38 25/25/25 34/34/34
f 32/32/32 33/33/33 36/36/36 30/30/30
f 43/43/43 40/40/40 41/41/41 52/52/52 51/51/51
f 44/44/44 42/42/42 43/43/43 51/51/51
f 41/41/41 40/40/40 49/49/49 48/48/48 39/39/39 52/52/52
f 50/50/50 47/47/47 46/46/46 44/44/44
f 57/57/57 54/54/54 55/55/55 66/66/66 65/65/65
f 58/58/58 56/56/56 57/57/57 65/65/65
f 55/55/55 54/54/54 63/63/63 62/62/62 53/53/53 66/66/66
f 64/64/64 61/61/61 60/60/60 58/58/58
f 69/69/69 68/68/68 71/71/71 77/77/77 78/78/78
f 71/71/71 70/70/70 72/72/72 77/77/77
f 80/80/80 68/68/68 69/69/69 78/78/78 67/67/67 79/79/79
f 74/74/74 75/75/75 76/76/76 72/72/72
f 85/85/85 82/82/82 83/83/83 94/94/94 93/93/93
f 86/86/86 84/84/84 85/85/85 93/93/93
f 83/83/83 82/82/82 91/91/91 90/90/90 81/81/81 94/94/94
f 92/92/92 89/89/89 88/88/88 86/86/86
f 97/97/97 96/96/96 99/99/99 107/107/107 108/108/108
f 99/99/99 98/98/98 100/100/100 107/107/107
f 105/105/105 96/96/96 97/97/97 108/108/108 95/95/95 104/104/104
f 102/102/102 103/103/103 106/106/106 100/100/100
f 31/31/31 32/32/32 30/30/30
f 36/36/36 37/37/37 30/30/30
f 45/45/45 44/44/44 46/46/46
f 50/50/50 44/44/44 51/51/51
f 59/59/59 58/58/58 60/60/60
f 64/64/64 58/58/58 65/65/65
f 73/73/73 74/74/74 72/72/72
f 76/76/76 77/77/77 72/72/72
f 87/87/87 86/86/86 88/88/88
f 92/92/92 86/86/86 93/93/93
f 101/101/101 102/102/102 100/100/100
f 106/106/106 107/107/107 100/100/100
